<svg id="Layer_1" data-name="Layer 1" xmlns="http://www.w3.org/2000/svg" viewBox="0 0 415.19 36.7"><title>LotteryLogo_BWtext_HORZ_REV</title><path d="M89.69,444.44a20.23,20.23,0,0,0,7-1.64l6.12,1,6.57-1.79,12.1,2.69-13,.3-9.11,1.79-5.75-1.12Z" transform="translate(-89.69 -425.7)" fill="#fff"/><polygon points="381.81 18.59 389.87 17.62 392.49 18.81 398.83 17.92 400.1 17.02 404.14 15.01 408.25 16.8 409.96 17.39 415.19 17.99 403.54 20.38 395.25 20.23 390.02 19.71 387.86 20.38 381.81 18.59" fill="#fff"/><path d="M132.54,429.85h-6.32v-3.72h19v3.72h-6.33v32.2h-6.33Z" transform="translate(-89.69 -425.7)" fill="#fff"/><path d="M173.68,429.85H161v12.38h9.49V446H161v12.37h12.65v3.73H161c-3.51,0-6.33-1.66-6.33-3.73V429.85c0-2.06,2.82-3.72,6.33-3.72h12.65Z" transform="translate(-89.69 -425.7)" fill="#fff"/><path d="M189.07,444.09l-7.1-18h6.41l3.25,9.2a22.85,22.85,0,0,1,.6,2.37h.17a22.85,22.85,0,0,1,.6-2.37l3.25-9.2h6.41l-7.09,18,7.09,18h-6.41L193,452.84a22.68,22.68,0,0,1-.6-2.36h-.17a22.68,22.68,0,0,1-.6,2.36l-3.25,9.21H182Z" transform="translate(-89.69 -425.7)" fill="#fff"/><path d="M213.77,431.41c0-3.07,4.27-5.59,9.49-5.59s9.5,2.52,9.5,5.59v30.64h-6.34V446H220.1v16.1h-6.33Zm6.33,10.82h6.32V429.85H220.1Z" transform="translate(-89.69 -425.7)" fill="#fff"/><path d="M244.21,452.69h6.33v5.63h6.33V446h-6.33c-3.51,0-6.33-1.66-6.33-3.72V431.41c0-3.07,4.27-5.59,9.49-5.59s9.49,2.52,9.49,5.59v4.07h-6.32v-5.63h-6.33v12.38h6.33c3.5,0,6.32,1.66,6.32,3.72v10.82c0,3.06-4.27,5.58-9.49,5.58s-9.49-2.52-9.49-5.58Z" transform="translate(-89.69 -425.7)" fill="#fff"/><path d="M293,426h5.42v32.36h5.43v-7.49h5.42V462.1H293Z" transform="translate(-89.69 -425.7)" fill="#fff"/><path d="M317.41,431.53c0-3.06,4-5.57,8.91-5.57s8.92,2.51,8.92,5.57v25.3c0,3.06-4,5.57-8.92,5.57s-8.91-2.51-8.91-5.57ZM329.29,430h-5.94v28.4h5.94Z" transform="translate(-89.69 -425.7)" fill="#fff"/><path d="M347.75,430h-5.94v-3.72h17.83V430H353.7V462.1h-5.95Z" transform="translate(-89.69 -425.7)" fill="#fff"/><path d="M372.32,430h-5.94v-3.72h17.83V430h-5.94V462.1h-5.95Z" transform="translate(-89.69 -425.7)" fill="#fff"/><path d="M409.42,430H397.54v12.34h8.91V446h-8.91v12.34h11.88v3.72H397.54c-3.29,0-6-1.66-6-3.72V430c0-2.06,2.66-3.72,6-3.72h11.88Z" transform="translate(-89.69 -425.7)" fill="#fff"/><path d="M418,426.26h11.88c3.3,0,5.94,1.66,5.94,3.72v11.34c0,1.71-1.2,2.36-2.64,2.86a3,3,0,0,1,2.64,3.31v11.95a4.22,4.22,0,0,0,1.45,2.66h-6.1a4.69,4.69,0,0,1-1.29-2.66V446h-5.94V462.1H418Zm5.94,16.06h5.94V430h-5.94Z" transform="translate(-89.69 -425.7)" fill="#fff"/><path d="M450.27,446a8.93,8.93,0,0,1-3.94-2.06,4.55,4.55,0,0,1-1.46-3.22V426.17h5.4v16.15h5.39V426.17h5.4v14.59a4.58,4.58,0,0,1-1.45,3.22,9,9,0,0,1-3.95,2.06V462.1h-5.39Z" transform="translate(-89.69 -425.7)" fill="#fff"/><path d="M466.08,427.19h1.7c.56,0,1.1.27,1.1.87a1.07,1.07,0,0,1-.76,1l.54.75a4.77,4.77,0,0,0,.73.81v.08h-.61c-.31,0-.55-.65-1.16-1.55h-.46v.95c0,.41,0,.41.47.46v.14h-1.55v-.14c.48-.05.47-.05.47-.46V427.8c0-.43,0-.42-.47-.47Zm1.08,1.79h.41c.47,0,.66-.36.66-.87s-.3-.74-.67-.74h-.4Zm.48,3.32a3.3,3.3,0,1,1,3.25-3.29A3.27,3.27,0,0,1,467.64,432.3Zm0-6.2a2.9,2.9,0,1,0,2.73,2.91A2.86,2.86,0,0,0,467.64,426.1Z" transform="translate(-89.69 -425.7)" fill="#fff"/></svg>